<?xml version="1.0" encoding="utf-8"?>
<!-- Generator: Adobe Illustrator 16.0.3, SVG Export Plug-In . SVG Version: 6.00 Build 0)  -->
<!DOCTYPE svg PUBLIC "-//W3C//DTD SVG 1.1//EN" "http://www.w3.org/Graphics/SVG/1.1/DTD/svg11.dtd">
<svg version="1.1" id="Layer_1" xmlns="http://www.w3.org/2000/svg" xmlns:xlink="http://www.w3.org/1999/xlink" x="0px" y="0px"
	 width="403px" height="120px" viewBox="0 0 403 120" enable-background="new 0 0 403 120" xml:space="preserve">
<path fill="#18CAE6" d="M9.91,29.203c0,1.913-1.497,3.409-3.409,3.409c-1.913,0-3.409-1.496-3.409-3.409
	c0-1.829,1.497-3.409,3.409-3.409C8.413,25.794,9.91,27.374,9.91,29.203z M8.33,80.422H4.588V42.007H8.33V80.422z"/>
<path fill="#18CAE6" d="M21.898,46.831h0.166c1.746-3.576,5.571-5.654,9.646-5.654c4.905,0,8.813,2.495,10.809,6.984
	c2.078-4.573,6.319-6.984,11.225-6.984c9.895,0,11.89,6.735,11.89,15.133v24.113h-3.742V55.81c0-5.902-0.915-11.142-8.232-11.142
	c-7.982,0-9.895,6.984-9.895,13.636v22.118h-3.741V56.725c0-5.987-1.082-12.057-8.564-12.057c-8.065,0-9.562,8.399-9.562,14.635
	v21.12h-3.742V42.007h3.742V46.831z"/>
<path fill="#18CAE6" d="M78.701,48.909h0.167c2.828-4.905,8.98-7.732,14.635-7.732c11.724,0,18.957,9.146,18.957,20.371
	c0,11.226-7.233,19.706-18.791,19.706c-5.904,0-11.642-2.578-14.801-7.482h-0.167v29.104H74.96V42.007h3.741V48.909z M78.453,62.046
	c0,8.98,6.069,15.716,15.299,15.716c8.98,0,14.966-7.567,14.966-16.131c0-8.814-5.737-16.963-15.133-16.963
	C83.774,44.668,78.453,52.817,78.453,62.046z"/>
<path fill="#18CAE6" d="M124.366,46.997h0.167c1.497-3.492,4.24-5.82,8.315-5.82c1.496,0,2.744,0.333,4.074,0.915l-1.995,3.326
	c-0.915-0.499-1.663-0.749-2.661-0.749c-8.398,0-7.899,10.477-7.899,16.13v19.625h-3.741V42.007h3.741V46.997z"/>
<path fill="#18CAE6" d="M144.632,61.547c-0.249,9.728,6.486,16.215,15.383,16.215c5.986,0,10.809-3.577,13.553-8.731l3.16,1.83
	c-3.493,6.65-9.646,10.392-17.213,10.392c-11.391,0-18.625-9.229-18.625-20.121c0-10.726,7.4-19.956,18.625-19.956
	c11.642,0,18.542,9.312,18.46,20.371H144.632z M174.233,58.056c-0.915-7.068-6.735-13.388-14.635-13.388
	c-7.815,0-14.301,6.153-14.966,13.388H174.233z"/>
<path fill="#0D0C1C" d="M265.129,76.929v3.493h-39.08L257.48,45.5h-26.359v-3.492h34.174l-31.348,34.922H265.129z"/>
<path fill="#0D0C1C" d="M278.845,29.203c0,1.913-1.496,3.409-3.409,3.409s-3.408-1.496-3.408-3.409c0-1.829,1.495-3.409,3.408-3.409
	S278.845,27.374,278.845,29.203z M277.265,80.422h-3.742V42.007h3.742V80.422z"/>
<path fill="#0D0C1C" d="M303.288,73.686l13.636-31.679h3.824L303.205,82.5l-17.629-40.493h3.826L303.288,73.686z"/>
<path fill="#0D0C1C" d="M327.563,61.547c-0.25,9.728,6.485,16.215,15.382,16.215c5.988,0,10.81-3.577,13.554-8.731l3.161,1.83
	c-3.494,6.65-9.646,10.392-17.213,10.392c-11.392,0-18.625-9.229-18.625-20.121c0-10.726,7.399-19.956,18.625-19.956
	c11.64,0,18.541,9.312,18.461,20.371H327.563z M357.164,58.056c-0.914-7.068-6.735-13.388-14.633-13.388
	c-7.816,0-14.302,6.153-14.968,13.388H357.164z"/>
<rect x="188" y="42.333" fill="#18CAE6" width="14" height="3"/>
<polygon fill="#0D0C1C" points="221.811,42.333 202,42.333 202,45.333 213.994,45.333 202,58.271 202,63.52 "/>
<rect x="202" y="77.333" fill="#0D0C1C" width="20" height="3"/>
<polygon fill="#18CAE6" points="190.463,77.333 202,63.52 202,58.271 182.564,80.333 202,80.333 202,77.333 "/>
<g>
	<path fill="#0D0C1C" d="M373.065,95.798c-0.87,2.228-3.298,3.293-5.528,2.423c-2.229-0.871-3.29-3.301-2.419-5.527
		c0.87-2.231,3.295-3.293,5.523-2.423C372.872,91.142,373.938,93.567,373.065,95.798z M394.138,23.254l4.652,1.817l-23.134,59.226
		l-4.65-1.818L394.138,23.254z"/>
</g>
</svg>
