<?xml version="1.0" encoding="utf-8"?>
<!DOCTYPE svg PUBLIC "-//W3C//DTD SVG 1.1//EN" "http://www.w3.org/Graphics/SVG/1.1/DTD/svg11.dtd">
<svg version="1.1" id="Layer_1" xmlns="http://www.w3.org/2000/svg" xmlns:xlink="http://www.w3.org/1999/xlink" x="0px" y="0px"
   width="999px" height="1665px" viewBox="0 0 999 1665" enable-background="new 0 0 999 1665" xml:space="preserve">
<g>
  <path fill-rule="evenodd" clip-rule="evenodd" fill="#18CAE6" d="M577,1c12.442,2.095,25.088,3.377,37.286,6.443
    c31.071,7.809,58.395,23.074,82.355,44.239c29.51,26.065,50.423,57.817,61.953,95.564c1.931,6.32,3.265,12.822,5.087,20.086
    c-66.246,0-131.755,0-197.567,0c0,22.477,0,44.237,0,66.553c66.719,0,133.444,0,200.502,0c0,22.443,0,44.337,0,66.841
    c-66.83,0-133.549,0-200.536,0c0,22.352,0,44.096,0,66.454c66.887,0,133.603,0,200.593,0c0,22.384,0,44.156,0,66.497
    c-66.651,0-133.368,0-200.475,0c0,22.43,0,44.295,0,66.791c66.859,0,133.587,0,200.531,0c0,22.391,0,44.155,0,66.486
    c-66.87,0-133.588,0-200.613,0c0,22.454,0,44.343,0,66.667c66.857,0,133.462,0,200.449,0c0,22.304,0,44.175,0,66.51
    c-66.727,0-133.313,0-200.328,0c0,22.339,0,44.224,0,66.661c66.63,0,133.358,0,200.399,0c0,22.305,0,44.063,0,66.45
    c-66.649,0-133.361,0-200.451,0c0,22.506,0,44.387,0,66.688c65.556,0,130.985,0,197.294,0c-1.309,5.971-2.178,11.472-3.729,16.773
    c-12.133,41.463-34.955,75.945-68.186,103.514c-26.661,22.117-56.92,36.89-91.049,43.063c-11.091,2.007-22.489,3.147-33.755,3.209
    c-46.826,0.256-93.678,0.834-140.476-0.403c-46.753-1.235-87.15-19.823-122.148-50.367c-27.542-24.036-47.455-53.363-59.521-87.917
    c-6.974-19.969-10.559-40.55-10.56-61.719c-0.007-221.484-0.108-442.969,0.075-664.453c0.041-49.741,18.107-92.918,50.525-130.242
    c24.443-28.142,54.293-48.661,89.736-60.203c13.656-4.447,28.171-6.258,42.295-9.269C418.125,1.609,419.562,1.305,421,1
    C473,1,525,1,577,1z"/>
  <path fill-rule="evenodd" clip-rule="evenodd" fill="#18CAE6" d="M1,634c9.66-0.076,19.319-0.21,28.979-0.218
    c32.496-0.027,64.991-0.011,97.487-0.011c1.979,0,3.959,0,6.65,0c0,2.43,0,4.525,0,6.622c0,74.823,0.092,149.647-0.019,224.471
    c-0.208,140.938,100.089,259.823,228.243,292.546c23.525,6.008,47.424,9.024,71.67,9.034c47.326,0.019,94.66,0.391,141.974-0.415
    c52.837-0.9,101.649-16.493,146.292-44.461c58.157-36.435,100.028-86.7,125.055-150.741
    c13.431-34.369,19.539-70.125,19.548-106.963c0.02-74.49,0.006-148.98,0.006-223.471c0-1.972,0-3.942,0-6.198
    c1.445-0.166,2.548-0.404,3.651-0.404c42.328-0.019,84.655-0.017,126.983-0.005c0.827,0,1.654,0.14,2.481,0.214c0,84,0,168,0,252
    c-0.313,2.295-0.779,4.58-0.916,6.885c-1.646,27.68-6.002,54.954-13.325,81.665c-23.404,85.358-68.4,157.497-134.886,215.785
    c-78.021,68.4-168.814,105.67-272.986,109.023c-3.455,0.111-6.906,0.359-10.519,0.552c0,77.753,0,155.132,0,233.102
    c94.345,0,188.374,0,282.632,0c0,44.724,0,88.855,0,132.988c-233,0-466,0-699,0c0-44.252,0-88.504,0-133.339
    c94.614,0,188.647,0,282.697,0c0-77.85,0-155.114,0-232.748c-2.013-0.124-3.807-0.18-5.59-0.351
    c-22.352-2.147-44.919-3.014-67.012-6.713c-68.78-11.515-130.592-39.677-185.933-81.84
    c-61.091-46.543-107.419-104.961-138.418-175.335c-15.989-36.3-26.827-74.094-31.814-113.486C3.406,910.153,2.298,898.064,1,886
    C1,802,1,718,1,634z"/>
</g>
</svg>